<svg xmlns="http://www.w3.org/2000/svg" width="1544" height="500" viewBox="0 0 1544 500"><title>Tavoos Floating Call Button</title><rect width="1544" height="500" fill="#F7F2FC"/><path d="M1130 0h414v500h-530c210-145 20-365 116-500" fill="#5F01AF"/><g transform="translate(1170 98) scale(1.12)"><g color="#FFFFFF" transform="translate(20 10) scale(.84)"><g fill="none" stroke="currentColor" stroke-width="14" stroke-linecap="round" stroke-linejoin="round"><path d="M128 104C94 77 91 42 128 22C165 42 162 77 128 104Z"/><path d="M92 124C49 122 23 98 34 65C74 64 95 88 92 124Z"/><path d="M164 124C207 122 233 98 222 65C182 64 161 88 164 124Z"/><path d="M75 160C41 174 15 162 12 132C42 114 67 126 75 160Z"/><path d="M181 160C215 174 241 162 244 132C214 114 189 126 181 160Z"/></g><path fill="currentColor" d="M89 145c-8 0-16 7-15 16 4 35 37 68 72 73 9 1 17-6 17-15v-14c0-4-3-8-7-9l-17-5c-4-1-8 0-10 3l-7 8c-13-6-23-16-29-29l8-7c3-3 4-7 3-10l-5-11Z"/></g></g><g font-family="DejaVu Sans,Arial,sans-serif" fill="#251136"><text x="72" y="84" font-size="20" letter-spacing="4" fill="#5F01AF">TAVOOS WEB / WORDPRESS</text><text x="68" y="221" font-size="110" font-weight="bold">Tavoos</text><text x="72" y="293" font-size="46">Floating Call Button</text><text x="75" y="357" font-size="25" fill="#62566E">One button. Your ways to connect.</text><path d="M75 400h900" stroke="#DDD0E8"/><text x="75" y="448" font-size="19" fill="#5F01AF">12 CHANNEL TYPES</text><text x="374" y="448" font-size="19" fill="#5F01AF">FLEXIBLE DISPLAY RULES</text><text x="760" y="448" font-size="19" fill="#5F01AF">RTL + LTR</text></g></svg>